<?xml version="1.0" ?><!DOCTYPE svg  PUBLIC '-//W3C//DTD SVG 1.1//EN'  'http://www.w3.org/Graphics/SVG/1.1/DTD/svg11.dtd'><svg height="512px" style="enable-background:new 0 0 512 512;" version="1.1" viewBox="0 0 512 512" width="512px" xml:space="preserve" xmlns="http://www.w3.org/2000/svg" xmlns:xlink="http://www.w3.org/1999/xlink"><g id="_x31_15-finder"><g><g><g><path d="M494.416,91.22v328.968c0,8.371-6.563,14.954-14.912,14.954H287.725      c-5.666-53.235-0.596-136.072,12.826-164.484h-89.477c0-62.505,28.932-142.055,58.162-194.391h210.268      C487.854,76.266,494.416,82.848,494.416,91.22L494.416,91.22z M494.416,91.22" style="fill:#DCE6EA;"/><g><path d="M287.725,435.142h-255.6c-8.349,0-14.911-6.583-14.911-14.954V91.22       c0-8.372,6.563-14.954,14.911-14.954h237.112c-29.23,52.336-58.162,131.886-58.162,194.391h89.477       C287.129,299.069,282.059,381.906,287.725,435.142L287.725,435.142z M287.725,435.142" style="fill:#2299F8;"/><path d="M300.166,494.803c-3.67,0-7.314-1.376-10.174-4.251c-24.936-24.996-23.861-146.029-9.838-204.94       h-69.08c-8.23,0-14.91-6.699-14.91-14.954c0-90.349,56.043-211.912,93.828-249.834c5.814-5.832,15.273-5.832,21.092,0       c5.811,5.831,5.811,15.31,0,21.142c-28.158,28.264-78.77,131.465-84.559,213.74h74.025c5.1,0,9.844,2.601,12.59,6.91       c2.742,4.335,3.098,9.744,0.924,14.358c-18.281,39.2-17.568,176.195-2.959,192.472c5.434,6.009,5.318,15.546-0.561,21.107       C307.617,493.364,303.863,494.803,300.166,494.803L300.166,494.803z M300.166,494.803" style="fill:#5E7B89;"/></g><path d="M255.813,375.323c-28.393,0-79.959-8.104-139.524-30.884c-7.692-2.939-11.54-11.58-8.615-19.296      c2.921-7.741,11.54-11.657,19.266-8.644c55.833,21.356,104.329,28.922,128.874,28.922c24.543,0,73.045-7.565,128.902-28.922      c7.641-2.99,16.316,0.874,19.242,8.644c2.953,7.716-0.896,16.356-8.621,19.296C335.775,367.219,284.209,375.323,255.813,375.323      L255.813,375.323z M255.813,375.323" style="fill:#5E7B89;"/><path d="M151.426,195.892c-8.235,0-14.916-6.698-14.916-14.953v-29.903      c0-8.253,6.681-14.952,14.916-14.952c8.231,0,14.911,6.699,14.911,14.952v29.903      C166.337,189.193,159.658,195.892,151.426,195.892L151.426,195.892z M151.426,195.892" style="fill:#5E7B89;"/><path d="M330.375,195.892c-8.229,0-14.908-6.698-14.908-14.953v-29.903      c0-8.253,6.68-14.952,14.908-14.952c8.238,0,14.918,6.699,14.918,14.952v29.903      C345.293,189.193,338.613,195.892,330.375,195.892L330.375,195.892z M330.375,195.892" style="fill:#5E7B89;"/></g></g></g></g><g id="Layer_1"/></svg>