<svg id="svg" version="1.1" xmlns="http://www.w3.org/2000/svg" xmlns:xlink="http://www.w3.org/1999/xlink" width="400" height="400" viewBox="0, 0, 400,400"><g id="svgg"><path id="path0" d="M139.961 45.183 C 137.496 47.906,135.181 48.438,125.775 48.438 C 115.932 48.438,113.251 49.118,104.228 53.906 C 97.425 57.517,91.808 59.375,87.698 59.375 C 80.221 59.375,75.982 62.933,77.016 68.340 C 77.602 71.405,76.364 73.159,70.510 77.562 C 66.534 80.552,60.117 85.400,56.250 88.334 C 52.383 91.267,46.758 97.211,43.750 101.542 C 40.742 105.873,35.638 113.002,32.407 117.384 C 29.177 121.767,26.163 127.207,25.711 129.473 C 24.416 135.953,20.131 148.636,16.959 155.372 C 10.661 168.749,16.172 194.900,26.061 198.558 C 27.685 199.159,29.955 200.784,31.105 202.169 C 32.255 203.554,33.988 204.690,34.957 204.694 C 35.926 204.698,40.178 206.455,44.405 208.600 C 54.746 213.846,97.296 214.577,104.446 209.631 C 111.575 204.700,112.500 204.377,112.500 206.819 C 112.500 208.093,110.039 212.360,107.031 216.300 C 95.534 231.362,102.316 256.112,118.633 258.638 C 124.421 259.534,139.405 263.180,147.767 265.726 C 156.934 268.518,176.563 267.597,176.563 264.375 C 176.563 259.596,173.165 257.813,164.063 257.813 C 159.250 257.813,154.645 257.178,153.828 256.401 C 153.012 255.625,149.180 254.633,145.313 254.195 C 112.424 250.477,100.943 235.646,118.590 219.676 C 120.397 218.041,121.875 215.348,121.875 213.693 C 121.875 212.037,124.336 207.679,127.344 204.008 C 130.352 200.338,132.813 196.780,132.813 196.102 C 132.813 195.424,134.889 192.885,137.427 190.459 C 144.125 184.058,146.457 179.570,146.045 173.866 C 145.844 171.073,146.645 168.027,147.841 167.034 C 149.028 166.049,150.000 164.274,150.000 163.090 C 150.000 161.906,151.272 160.938,152.826 160.938 C 154.381 160.937,157.018 159.905,158.686 158.643 C 160.354 157.382,163.259 156.327,165.142 156.300 C 167.025 156.272,169.000 155.547,169.531 154.688 C 170.062 153.828,174.323 153.125,178.998 153.125 L 187.500 153.125 187.500 166.108 C 187.500 175.104,188.204 180.022,189.794 182.123 C 191.056 183.791,192.110 187.090,192.138 189.453 C 192.165 191.816,192.715 193.751,193.359 193.753 C 194.004 193.754,196.529 196.917,198.970 200.782 C 202.751 206.766,204.658 208.171,211.832 210.256 C 216.464 211.603,220.661 213.362,221.157 214.165 C 223.350 217.713,257.542 215.841,263.703 211.836 C 277.693 202.742,299.995 175.490,299.998 167.486 C 299.999 164.437,300.641 162.712,301.563 163.281 C 302.422 163.812,303.125 166.273,303.125 168.750 C 303.125 171.227,303.828 173.688,304.688 174.219 C 310.271 177.669,306.313 192.815,297.501 201.720 C 289.844 209.457,288.966 210.963,290.474 213.780 C 291.609 215.901,291.662 217.328,290.629 217.966 C 288.940 219.010,288.396 257.382,290.011 261.591 C 290.533 262.950,292.642 264.063,294.698 264.063 C 296.755 264.063,298.438 264.715,298.438 265.513 C 298.438 266.311,299.649 268.176,301.130 269.657 C 302.756 271.282,303.635 274.145,303.348 276.879 C 302.798 282.120,305.388 285.938,309.493 285.938 C 311.304 285.938,313.288 288.087,314.900 291.797 C 319.080 301.412,319.735 302.323,322.824 302.815 C 324.450 303.074,327.442 304.114,329.471 305.125 C 332.722 306.746,333.560 306.466,336.503 302.780 C 338.562 300.201,341.043 298.787,342.969 299.095 C 350.697 300.330,351.562 298.145,351.562 277.394 C 351.562 259.395,351.784 257.953,354.687 257.031 C 357.549 256.123,357.812 254.667,357.812 239.783 L 357.812 223.527 362.891 222.216 L 367.969 220.905 368.378 209.281 C 368.831 196.442,370.173 192.762,377.706 183.703 C 385.167 174.732,384.612 160.938,376.791 160.938 C 371.437 160.938,357.813 140.817,357.813 132.910 C 357.813 130.380,357.109 127.875,356.250 127.344 C 352.540 125.051,354.514 116.007,358.969 114.889 C 363.924 113.646,365.568 111.585,365.601 106.574 C 365.633 101.808,352.246 87.500,347.755 87.500 C 345.896 87.500,343.707 86.839,342.891 86.032 C 340.949 84.112,327.171 83.462,320.714 84.985 C 316.733 85.925,314.761 85.485,311.519 82.934 C 309.249 81.149,306.431 79.688,305.258 79.688 C 304.085 79.688,303.125 78.579,303.125 77.224 C 303.125 75.868,300.993 72.628,298.387 70.022 C 295.781 67.416,292.591 62.750,291.296 59.652 C 285.525 45.839,277.490 44.521,265.787 55.469 C 257.469 63.249,254.912 63.940,250.888 59.493 C 247.642 55.906,199.105 54.831,193.670 58.225 C 190.087 60.463,176.209 54.422,172.729 49.110 C 171.078 46.590,168.367 45.380,162.956 44.747 C 158.838 44.265,152.642 43.434,149.188 42.899 C 144.044 42.104,142.373 42.517,139.961 45.183 M106.406 83.945 C 119.369 84.557,121.993 85.159,125.737 88.376 C 128.120 90.423,131.390 92.517,133.004 93.029 C 134.617 93.542,135.938 94.859,135.938 95.957 C 135.938 97.055,137.380 99.259,139.143 100.854 C 143.838 105.103,142.037 152.232,136.705 164.662 C 135.066 168.484,107.800 194.872,101.585 198.652 C 95.136 202.574,53.175 203.044,50.009 199.230 C 48.945 197.947,45.519 196.179,42.396 195.300 C 28.108 191.280,19.921 173.737,26.155 160.501 C 30.265 151.776,34.375 139.896,34.375 136.741 C 34.375 134.835,35.957 131.094,37.891 128.428 C 39.824 125.763,45.182 118.281,49.796 111.803 C 60.813 96.337,81.871 80.153,88.281 82.226 C 90.000 82.781,98.156 83.555,106.406 83.945 M261.719 104.233 C 273.022 105.840,289.063 115.856,289.063 121.307 C 289.063 124.096,289.766 126.813,290.625 127.344 C 291.484 127.875,292.188 132.797,292.188 138.281 C 292.188 143.766,291.484 148.688,290.625 149.219 C 289.766 149.750,289.063 154.024,289.063 158.717 C 289.063 165.127,288.091 168.789,285.156 173.438 C 283.008 176.841,281.250 179.997,281.250 180.451 C 281.250 180.905,279.388 183.367,277.112 185.921 C 274.836 188.475,272.194 192.130,271.240 194.043 C 270.287 195.956,267.946 197.903,266.038 198.370 C 264.130 198.837,261.140 200.449,259.392 201.953 C 254.514 206.150,227.224 205.883,219.531 201.563 C 216.471 199.844,213.030 198.438,211.884 198.438 C 209.066 198.438,201.562 187.369,201.563 183.211 C 201.563 181.375,200.859 179.437,200.000 178.906 C 196.047 176.463,198.297 158.710,203.871 148.365 C 206.859 142.819,209.320 136.699,209.340 134.766 C 209.359 132.832,210.078 131.250,210.938 131.250 C 211.797 131.250,212.500 130.532,212.500 129.654 C 212.500 126.066,220.855 115.779,225.246 113.960 C 227.835 112.888,230.800 111.242,231.834 110.302 C 235.688 106.801,240.719 104.688,245.199 104.688 C 247.738 104.688,250.280 103.936,250.847 103.018 C 251.414 102.101,253.038 101.848,254.455 102.458 C 255.872 103.068,259.141 103.867,261.719 104.233 M198.438 135.440 C 198.438 136.472,197.734 137.750,196.875 138.281 C 196.016 138.812,195.313 140.687,195.313 142.447 C 195.313 144.927,194.697 145.367,192.578 144.402 C 186.357 141.570,172.520 141.937,162.865 145.190 C 150.366 149.400,149.728 149.357,151.601 144.430 C 152.439 142.225,153.125 138.710,153.125 136.617 C 153.125 132.634,159.599 130.945,161.719 134.375 C 163.403 137.101,180.210 136.172,186.748 132.992 C 193.003 129.949,198.438 131.088,198.438 135.440 M62.175 219.055 C 58.259 225.030,54.499 273.874,57.708 277.083 C 58.625 278.000,59.375 281.380,59.375 284.595 C 59.375 287.810,60.107 290.893,61.001 291.445 C 62.676 292.480,69.528 302.290,73.132 308.811 C 74.253 310.840,76.563 312.500,78.265 312.500 C 81.902 312.500,88.983 316.750,91.885 320.676 C 93.008 322.195,94.819 323.438,95.910 323.438 C 97.001 323.438,99.544 325.195,101.563 327.344 C 103.581 329.492,106.538 331.250,108.134 331.250 C 109.730 331.250,111.442 332.308,111.938 333.601 C 112.981 336.320,118.996 339.176,131.486 342.885 C 136.342 344.326,141.549 346.869,143.056 348.534 C 145.571 351.313,148.076 351.563,173.440 351.563 C 202.641 351.563,206.989 350.703,213.354 343.670 C 219.311 337.088,209.507 331.219,202.875 337.397 C 199.700 340.356,197.495 340.625,176.430 340.625 L 153.449 340.625 141.178 335.028 C 117.749 324.343,108.377 319.113,98.655 311.300 C 95.199 308.522,91.362 306.250,90.130 306.250 C 87.666 306.250,76.577 293.992,76.568 291.258 C 76.565 290.317,75.156 288.274,73.438 286.719 C 71.719 285.163,70.288 282.418,70.257 280.617 C 70.227 278.817,69.197 275.586,67.969 273.438 C 64.993 268.232,64.987 251.580,67.959 245.882 C 71.347 239.386,71.067 223.152,67.490 218.736 L 64.668 215.250 62.175 219.055 " stroke="none" fill="#000000" fill-rule="evenodd"></path></g></svg>